{"title":"The.Man.Who.Never.Was.1956.BRRip.XviD.MP3-RARBG","uid":15432040,"size":1397834477,"categoryP":"video","categoryS":"movies","magnet":"?xt=urn:btih:490c8fe1074ca6d9cb969763c88ab6c2f5daedb3&amp;dn=The.Man.Who.Never.Was.1956.BRRip.XviD.MP3-RARBG&amp;tr=udp%3A%2F%2Ftracker.leechers-paradise.org%3A6969&amp;tr=udp%3A%2F%2Fzer0day.ch%3A1337&amp;tr=udp%3A%2F%2Fopen.demonii.com%3A1337&amp;tr=udp%3A%2F%2Ftracker.coppersurfer.tk%3A6969&amp;tr=udp%3A%2F%2Fexodus.desync.com%3A6969","seeders":2,"leechers":2,"uploader":null,"files":4,"time":1469732035,"description":"Video\r\nID                                       : 0\r\nFormat                                   : MPEG-4 Visual\r\nFormat profile                           :   \r\nFormat settings, BVOP                    : No\r\nFormat settings, QPel                    : No\r\nFormat settings, GMC                     : No warppoints\r\nFormat settings, Matrix                  : Default (H.263)\r\nCodec ID                                 : XVID\r\nCodec ID/Hint                            : XviD\r\nDuration                                 : 1h 43mn\r\nBit rate                                 : 1 600 Kbps\r\nWidth                                    : 720 pixels\r\nHeight                                   : 282 pixels\r\nDisplay aspect ratio                     : 2.553\r\nFrame rate                               : 23.976 fps\r\nColor space                              : YUV\r\nChroma subsampling                       : 4:2:0\r\nBit depth                                : 8 bits\r\nScan type                                : Progressive\r\nCompression mode                         : Lossy\r\nBits/(Pixel*Frame)                       : 0.329\r\nStream size                              : 1.15 GiB (89%)\r\nTitle                                    : RARBG.COM - The.Man.Who.Never.Was.1956.BRRip.XviD.MP3-RARBG\r\nWriting library                          : Lavc56.60.100\r\n\r\nAudio\r\nID                                       : 1\r\nFormat                                   : MPEG Audio\r\nFormat version                           : Version 1\r\nFormat profile                           : Layer 3\r\nMode                                     : Joint stereo\r\nCodec ID                                 : 55\r\nCodec ID/Hint                            : MP3\r\nDuration                                 : 1h 43mn\r\nBit rate mode                            : Constant\r\nBit rate                                 : 192 Kbps\r\nChannel(s)                               : 2 channels\r\nSampling rate                            : 48.0 KHz\r\nCompression mode                         : Lossy\r\nStream size                              : 142 MiB (11%)\r\nAlignment                                : Aligned on interleaves\r\nInterleave, duration                     : 24 ms (0.58 video frame)\r\nInterleave, preload duration             : 24 ms\r\nTitle                                    : RARBG.COM - The.Man.Who.Never.Was.1956.BRRip.XviD.MP3-RARBG","torrent":{"xt":"urn:btih:490c8fe1074ca6d9cb969763c88ab6c2f5daedb3","amp;dn":"The.Man.Who.Never.Was.1956.BRRip.XviD.MP3-RARBG","amp;tr":["udp%3A%2F%2Ftracker.leechers-paradise.org%3A6969","udp%3A%2F%2Fzer0day.ch%3A1337","udp%3A%2F%2Fopen.demonii.com%3A1337","udp%3A%2F%2Ftracker.coppersurfer.tk%3A6969","udp%3A%2F%2Fexodus.desync.com%3A6969"],"infoHash":"490c8fe1074ca6d9cb969763c88ab6c2f5daedb3","infoHashBuffer":{"type":"Buffer","data":[73,12,143,225,7,76,166,217,203,150,151,99,200,138,182,194,245,218,237,179]},"announce":[],"urlList":[]}}